<svg width="266" height="266" viewBox="0 0 266 266" fill="none" xmlns="http://www.w3.org/2000/svg">
<path d="M113.593 7.58015C124.93 -1.52153 141.07 -1.52153 152.407 7.58015L153.452 8.41892C160.232 13.8619 168.986 16.2076 177.579 14.8837L178.903 14.6797C193.272 12.4661 207.249 20.5358 212.517 34.0867L213.002 35.3355C216.152 43.4392 222.561 49.8476 230.664 52.9977L231.913 53.4831C245.464 58.7507 253.534 72.7278 251.32 87.097L251.116 88.4212C249.792 97.0143 252.138 105.768 257.581 112.548L258.42 113.593C267.522 124.93 267.522 141.07 258.42 152.407L257.581 153.452C252.138 160.232 249.792 168.986 251.116 177.579L251.32 178.903C253.534 193.272 245.464 207.249 231.913 212.517L230.665 213.002C222.561 216.152 216.152 222.561 213.002 230.665L212.517 231.913C207.249 245.464 193.272 253.534 178.903 251.32L177.579 251.116C168.986 249.792 160.232 252.138 153.452 257.581L152.407 258.42C141.07 267.522 124.93 267.522 113.593 258.42L112.548 257.581C105.768 252.138 97.0143 249.792 88.4212 251.116L87.097 251.32C72.7278 253.534 58.7507 245.464 53.4831 231.913L52.9977 230.665C49.8476 222.561 43.4392 216.152 35.3355 213.002L34.0867 212.517C20.5358 207.249 12.4661 193.272 14.6797 178.903L14.8837 177.579C16.2076 168.986 13.8619 160.232 8.41892 153.452L7.58015 152.407C-1.52153 141.07 -1.52153 124.93 7.58015 113.593L8.41892 112.548C13.8619 105.768 16.2076 97.0143 14.8837 88.4212L14.6797 87.097C12.4661 72.7278 20.5358 58.7507 34.0867 53.4831L35.3355 52.9977C43.4392 49.8476 49.8476 43.4392 52.9977 35.3355L53.4831 34.0867C58.7507 20.5358 72.7278 12.4661 87.097 14.6797L88.4212 14.8837C97.0143 16.2076 105.768 13.8619 112.548 8.41892L113.593 7.58015Z" fill="black"/>
</svg>
