<svg width="264" height="264" viewBox="0 0 264 264" fill="none" xmlns="http://www.w3.org/2000/svg">
<path d="M81.5348 35.5313C99.1947 -10.8472 164.805 -10.8472 182.465 35.5312L186.534 46.2168C192.016 60.6137 203.386 71.9838 217.783 77.4659L228.469 81.5348C274.847 99.1947 274.847 164.805 228.469 182.465L217.783 186.534C203.386 192.016 192.016 203.386 186.534 217.783L182.465 228.469C164.805 274.847 99.1948 274.847 81.5348 228.469L77.4659 217.783C71.9838 203.386 60.6138 192.016 46.2168 186.534L35.5313 182.465C-10.8472 164.805 -10.8472 99.1948 35.5312 81.5348L46.2168 77.4659C60.6137 71.9838 71.9838 60.6138 77.4659 46.2168L81.5348 35.5313Z" fill="black"/>
</svg>
