<svg width="130" height="130" viewBox="0 0 130 130" fill="none" xmlns="http://www.w3.org/2000/svg">
<path d="M35.0089 119.444C52.5176 133.519 77.4824 133.519 94.9911 119.444C99.443 115.865 103.746 112.009 107.878 107.878C112.009 103.746 115.865 99.443 119.444 94.9911C133.519 77.4824 133.519 52.5176 119.444 35.0089C115.865 30.557 112.009 26.2537 107.878 22.1221C103.746 17.9906 99.443 14.1353 94.9911 10.5564C77.4824 -3.51879 52.5176 -3.51879 35.0089 10.5564C30.557 14.1353 26.2537 17.9906 22.1221 22.1221C17.9906 26.2537 14.1353 30.557 10.5564 35.0089C-3.51879 52.5176 -3.51879 77.4824 10.5564 94.9911C14.1353 99.443 17.9906 103.746 22.1221 107.878C26.2537 112.009 30.557 115.865 35.0089 119.444Z" fill="black"/>
</svg>
