<svg width="130" height="130" viewBox="0 0 130 130" fill="none" xmlns="http://www.w3.org/2000/svg">
<path d="M35.7003 126.608C19.7087 122.837 7.16253 110.291 3.39165 94.2997C1.17359 84.8933 0 75.0837 0 65C0 54.9163 1.1736 45.1067 3.39165 35.7003C7.16253 19.7087 19.7087 7.16254 35.7003 3.39165C45.1067 1.1736 54.9163 0 65 0C75.0837 0 84.8933 1.1736 94.2997 3.39165C110.291 7.16254 122.837 19.7087 126.608 35.7003C128.826 45.1067 130 54.9163 130 65C130 75.0837 128.826 84.8933 126.608 94.2997C122.837 110.291 110.291 122.837 94.2997 126.608C84.8933 128.826 75.0837 130 65 130C54.9163 130 45.1067 128.826 35.7003 126.608Z" fill="black"/>
</svg>
