<svg width="130" height="130" viewBox="0 0 130 130" fill="none" xmlns="http://www.w3.org/2000/svg">
<path d="M65 8.47826C56.923 8.47826 49.3882 4.68286 41.8066 1.89769C38.4651 0.670131 34.8543 0 31.087 0C13.9181 0 0 13.9181 0 31.087C0 34.8543 0.670131 38.4651 1.89769 41.8066C4.68287 49.3882 8.47826 56.923 8.47826 65C8.47826 73.077 4.68287 80.6118 1.89769 88.1934C0.670131 91.5349 0 95.1457 0 98.913C0 116.082 13.9181 130 31.087 130C34.8543 130 38.465 129.33 41.8066 128.102C49.3882 125.317 56.923 121.522 65 121.522C73.077 121.522 80.6118 125.317 88.1934 128.102C91.535 129.33 95.1457 130 98.913 130C116.082 130 130 116.082 130 98.913C130 95.1457 129.33 91.535 128.102 88.1934C125.317 80.6118 121.522 73.077 121.522 65C121.522 56.923 125.317 49.3882 128.102 41.8066C129.33 38.465 130 34.8543 130 31.087C130 13.9181 116.082 0 98.913 0C95.1457 0 91.5349 0.670131 88.1934 1.89769C80.6118 4.68287 73.077 8.47826 65 8.47826Z" fill="black"/>
</svg>
